<?xml version="1.0" encoding="UTF-8"?>
<svg id="AllodsBight" xmlns="http://www.w3.org/2000/svg" viewBox="0 0 119.1 104.9">
  <polygon id="allods_belayingtrace" points="3.6 52.4 22 84.5 48.5 61.5 49 54.4 33 43.8 8.9 43.4 3.6 52.4" style="fill: #73bf44;"/>
  <polygon id="allods_rumhold" points="33 43.8 46 35.2 36.3 3.9 31.5 3.9 8.9 43.4 33 43.8" style="fill: #119b48;"/>
  <polygon id="allods_scurvyshire" points="36.3 3.9 46 35.2 65.2 37.3 86.5 3.9 36.3 3.9" style="fill: #bf1e5a;"/>
  <polygon id="allods_stoneplank" points="87.5 3.9 115.5 52.4 92.3 92.7 64.2 44.9 65.2 37.3 86.5 3.9 87.5 3.9" style="fill: #6abd86;"/>
  <polygon id="allods_mercyswail" points="64.2 44.9 49 54.4 48.5 61.5 91.3 94.4 92.3 92.7 64.2 44.9" style="fill: #3a52a4;"/>
  <polygon id="allods_turncoat" points="48.5 61.5 91.3 94.4 87.5 100.9 31.5 100.9 22 84.5 48.5 61.5" style="fill: #72cddb;"/>
  <polygon id="allods_homesick" points="46 35.2 65.2 37.3 64.2 44.9 49 54.4 33 43.8 46 35.2" style="fill: #95872a;"/>
</svg>