<?xml version="1.0" encoding="UTF-8"?>
<svg id="CallumsCape" xmlns="http://www.w3.org/2000/svg" viewBox="0 0 119.1 104.9">
  <polygon id="callums_camphollow" points="87.6 3.9 69.8 3.9 64.4 43.9 115.2 51.8 87.6 3.9" style="fill: #3dbeb7;"/>
  <polygon id="callums_callumskeep" points="64.4 43.9 53.9 53.6 20.8 22.7 31.7 3.9 69.8 3.9 64.4 43.9" style="fill: #662673;"/>
  <polygon id="callums_holdout" points="64.4 43.9 115.4 52.1 111.1 60.2 66.9 69.4 54.8 59.8 53.8 55.8 53.9 53.6 64.4 43.9" style="fill: #7dbfe9;"/>
  <polygon id="callums_lookout" points="66.9 69.4 75.3 100.9 87.6 100.9 111.1 60.2 66.9 69.4" style="fill: #d41d52;"/>
  <polygon id="callums_ire" points="54.8 59.8 37.9 100.9 75.3 100.9 66.9 69.4 54.8 59.8" style="fill: #e5c1dc;"/>
  <polygon id="callums_scoutsjest" points="54.8 59.8 53.8 55.8 13.8 70 31.7 100.9 37.9 100.9 54.8 59.8" style="fill: #eef5e0;"/>
  <polygon id="callums_naofa" points="53.8 55.8 53.9 53.6 20.8 22.7 3.7 52.4 13.8 70 53.8 55.8" style="fill: #13a64a;"/>
</svg>