<?xml version="1.0" encoding="UTF-8"?>
<svg id="ClansheadValley" xmlns="http://www.w3.org/2000/svg" viewBox="0 0 119.1 104.9">
  <polygon points="31.5 3.9 82.1 3.9 71.1 24.2 51.5 36.9 20 24 31.5 3.9" style="fill: #d41d52; opacity: .5;"/>
  <polygon points="51.5 36.9 55.2 55.5 13.1 69 3.6 52.4 20 24 51.5 36.9" style="fill: #3dbeb7; opacity: .5;"/>
  <polygon points="51.5 36.9 71.1 24.2 75 47.7 61.2 58.7 55.2 55.5 51.5 36.9" style="fill: #73bf44; opacity: .5;"/>
  <polygon points="71.1 24.2 82.1 3.9 87.5 3.9 115.5 52.4 112.1 58.2 75 47.7 71.1 24.2" style="fill: #935267; opacity: .5;"/>
  <polygon points="75 47.7 61.2 58.7 62.8 64 96.6 85.2 112.1 58.2 75 47.7" style="fill: #ffde92; opacity: .5;"/>
  <polygon points="62.8 64 43.2 100.9 87.5 100.9 96.6 85.2 62.8 64" style="fill: #bf1e5a; opacity: .5;"/>
  <polygon points="62.8 64 61.2 58.7 55.2 55.5 13.1 69 31.5 100.9 43.2 100.9 62.8 64" style="fill: #b8e4f4; opacity: .5;"/>
</svg>