<?xml version="1.0" encoding="UTF-8"?>
<svg id="Deadlands" xmlns="http://www.w3.org/2000/svg" viewBox="0 0 119.1 104.9">
  <polygon id="deadlands_sunshollow" points="31.5 100.9 37.3 100.9 51.1 72.6 44.6 62.2 12.6 68 31.5 100.9" style="fill: #935267;"/>
  <polygon id="deadlands_liberationpoint" points="44.6 62.2 45.9 59 42.3 42.9 14.2 34 3.6 52.4 12.6 68 44.6 62.2" style="fill: #95872a;"/>
  <polygon id="deadlands_thespine" points="14.2 34 42.3 42.9 48.1 40.6 53.4 16.7 49 3.9 31.5 3.9 14.2 34" style="fill: #0c713a;"/>
  <polygon id="deadlands_callahansgate" points="87.5 3.9 49 3.9 53.4 16.7 72.3 37.6 75.4 38.3 98.8 23.4 87.5 3.9" style="fill: #3dbeb7;"/>
  <polygon id="deadlands_saltmarch" points="98.8 23.4 115.5 52.4 104.3 71.9 75.8 57 75.4 38.3 98.8 23.4" style="fill: #bf1e5a;"/>
  <polygon id="deadlands_brineglen" points="75.8 57 68.1 63.3 65.8 70.7 83.2 100.9 87.5 100.9 104.3 71.9 75.8 57" style="fill: #f98500ff;"/>
  <polygon id="deadlands_saltfarms" points="51.1 72.6 65.8 70.7 83.2 100.9 37.3 100.9 51.1 72.6" style="fill: #ff00c8ff;"/>
  <polygon id="deadlands_thepits" points="44.6 62.2 45.9 59 57.5 55.5 68.1 63.3 65.8 70.7 51.1 72.6 44.6 62.2" style="fill: #73bf44;"/>
  <polygon id="deadlands_abandonedward" points="42.3 42.9 48.1 40.6 59.2 42.6 57.5 55.5 45.9 59 42.3 42.9" style="fill: #6f6f6fff;"/>
  <polygon id="deadlands_ironsend" points="53.4 16.7 48.1 40.6 59.2 42.6 72.3 37.6 53.4 16.7" style="fill: #00ffccff;"/>
  <polygon id="deadlands_callahansboot" points="72.3 37.6 75.4 38.3 75.8 57 68.1 63.3 57.5 55.5 59.2 42.6 72.3 37.6" style="fill: #6cff37ff;"/>
</svg>