<?xml version="1.0" encoding="UTF-8"?>
<svg id="EndlessShore" xmlns="http://www.w3.org/2000/svg" viewBox="0 0 119.1 104.9">
  <polygon points="31.5 3.9 72.9 3.9 49.7 34.1 35.5 32.5 20.4 23.2 31.5 3.9" style="fill: #d5eaf9; opacity: .5;"/>
  <polygon points="3.6 52.4 20.4 23.2 35.5 32.5 40 52.6 6.3 57.3 3.6 52.4" style="fill: #3a52a4; opacity: .5;"/>
  <polygon points="6.3 57.3 22.5 85.3 51.2 62.6 48.2 56.2 40 52.6 6.3 57.3" style="fill: #bf1e5a; opacity: .5;"/>
  <polygon points="49.7 34.1 35.5 32.5 40 52.6 48.2 56.2 53.4 42.7 49.7 34.1" style="fill: #95872a; opacity: .5;"/>
  <polygon points="53.4 42.7 77.1 41.6 74.5 56.9 65.3 63.2 57 64.9 51.2 62.6 48.2 56.2 53.4 42.7" style="fill: #935267; opacity: .5;"/>
  <polygon points="49.7 34.1 72.9 3.9 87.5 3.9 94.3 15.6 77.1 41.6 53.4 42.7 49.7 34.1" style="fill: #b0d361; opacity: .5;"/>
  <polygon points="94.3 15.6 115.5 52.4 101.2 77.2 74.5 56.9 77.1 41.6 94.3 15.6" style="fill: #d9c825; opacity: .5;"/>
  <polygon points="74.5 56.9 65.3 63.2 85.3 100.9 87.5 100.9 101.2 77.2 74.5 56.9" style="fill: #3a52a4; opacity: .5;"/>
  <polygon points="57 64.9 65.3 63.2 85.3 100.9 57.4 100.9 57 64.9" style="fill: #d4effc; opacity: .5;"/>
  <polygon points="51.2 62.6 57 64.9 57.4 100.9 31.5 100.9 22.5 85.3 51.2 62.6" style="fill: #bf1e5a; opacity: .5;"/>
</svg>