<?xml version="1.0" encoding="UTF-8"?>
<svg id="FarranacCoast" xmlns="http://www.w3.org/2000/svg" viewBox="0 0 119.1 104.9">
  <polygon points="87.5 3.9 54.8 3.9 69.6 33.3 72.9 33.8 95.8 18.2 87.5 3.9" style="fill: #721446; opacity: .5;"/>
  <polygon points="95.8 18.2 105.8 35.6 78.7 48.5 72.9 33.8 95.8 18.2" style="fill: #f6861f; opacity: .5;"/>
  <polygon points="78.7 48.5 77.6 52.5 79.4 60.8 81.6 63 102.9 74.2 115.5 52.4 105.8 35.6 78.7 48.5" style="fill: #72bf44; opacity: .5;"/>
  <polygon points="102.9 74.2 87.5 100.9 72.3 100.9 66 81.8 81.9 63.1 102.9 74.2" style="fill: #95872a; opacity: .5;"/>
  <polygon points="81.9 63.1 79.4 60.8 62.8 65.7 59.5 74.2 66 81.8 81.9 63.1" style="fill: #c71d68; opacity: .5;"/>
  <polygon points="77.6 52.5 79.4 60.8 62.8 65.7 56.3 53.6 61.8 50.4 77.6 52.5" style="fill: #7dbfe9; opacity: .5;"/>
  <polygon points="72.9 33.8 69.6 33.3 64.2 36.8 61.8 50.4 77.6 52.5 78.7 48.5 72.9 33.8" style="fill: #fede6b; opacity: .5;"/>
  <polygon points="54.8 3.9 31.5 3.9 16.9 29.4 64.2 36.8 69.6 33.3 54.8 3.9" style="fill: #221c0f; opacity: .5;"/>
  <polygon points="64.2 36.8 16.9 29.4 7.1 46.3 56.3 53.6 61.8 50.4 64.2 36.8" style="fill: #fae2ed; opacity: .5;"/>
  <polygon points="7.1 46.3 3.6 52.4 15.6 73.3 59.5 74.2 62.8 65.7 56.3 53.6 7.1 46.3" style="fill: #a48fc3; opacity: .5;"/>
  <polygon points="59.5 74.2 15.6 73.3 31.5 100.9 72.3 100.9 66 81.8 59.5 74.2" style="fill: #e3f4fd; opacity: .5;"/>
</svg>