<?xml version="1.0" encoding="UTF-8"?>
<svg id="FishermansRow" xmlns="http://www.w3.org/2000/svg" viewBox="0 0 119.1 104.9">
  <polygon points="95.9 18.4 66.9 49.5 70.7 61.8 108.1 65.3 115.5 52.4 95.9 18.4" style="fill: #c71d68; opacity: .5;"/>
  <polygon points="66.9 49.5 58.6 43.5 59.2 31.1 91 10.1 95.9 18.4 66.9 49.5" style="fill: #05515b; opacity: .5;"/>
  <polygon points="91 10.1 87.5 3.9 31.5 3.9 25.1 15.1 59.2 31.1 91 10.1" style="fill: #e3f4fd; opacity: .5;"/>
  <polygon points="25.1 15.1 19.2 25.3 51.4 45.8 58.6 43.5 59.2 31.1 25.1 15.1" style="fill: #95872a; opacity: .5;"/>
  <polygon points="19.2 25.3 3.6 52.4 4.6 54.2 47.5 55.4 51.4 45.8 19.2 25.3" style="fill: #72bf44; opacity: .5;"/>
  <polygon points="4.6 54.2 23.6 87.1 50.9 62.4 47.5 55.4 4.6 54.2" style="fill: #f5d6e7; opacity: .5;"/>
  <polygon points="50.9 62.4 64.5 67.2 57.3 100.9 31.5 100.9 23.6 87.1 50.9 62.4" style="fill: #20439b; opacity: .5;"/>
  <polygon points="64.5 67.2 70.7 61.8 108.1 65.3 87.5 100.9 57.3 100.9 64.5 67.2" style="fill: #ffd864; opacity: .5;"/>
  <polygon points="58.6 43.5 51.4 45.8 47.5 55.4 50.9 62.4 64.5 67.2 70.7 61.8 66.9 49.5 58.6 43.5" style="fill: #eaf4e7; opacity: .5;"/>
</svg>