<?xml version="1.0" encoding="UTF-8"?>
<svg id="Godcrofts" xmlns="http://www.w3.org/2000/svg" viewBox="0 0 119.1 104.9">
  <polygon id="godcrofts_fleecewatch" points="31.5 3.9 67.4 3.9 51.8 35.4 19.5 24.9 31.5 3.9" style="fill: #ffde92;"/>
  <polygon id="godcrofts_protos" points="19.5 24.9 6.5 47.3 52 55.3 54.9 40.1 51.8 35.4 19.5 24.9" style="fill: #bf1e5a;"/>
  <polygon id="godcrofts_axehead" points="52 55.3 53.2 58 26.9 92.8 3.6 52.4 6.5 47.3 52 55.3" style="fill: #c38276;"/>
  <polygon id="godcrofts_exile" points="53.2 58 66.9 64.6 65.1 100.9 31.5 100.9 26.9 92.8 53.2 58" style="fill: #3dbeb7;"/>
  <polygon id="godcrofts_lipsia" points="66.9 64.6 74.9 59.7 110.7 60.7 87.5 100.9 65.1 100.9 66.9 64.6" style="fill: #009b51;"/>
  <polygon id="godcrofts_argosa" points="74.9 59.7 69.9 40.1 101.9 28.8 115.5 52.4 110.7 60.7 74.9 59.7" style="fill: #b8e4f4;"/>
  <polygon id="godcrofts_ursa" points="101.9 28.8 87.5 3.9 72.3 3.9 66.9 38.8 69.9 40.1 101.9 28.8" style="fill: #ed188b;"/>
  <polygon id="godcrofts_isawa" points="67.4 3.9 72.3 3.9 66.9 38.8 54.9 40.1 51.8 35.4 67.4 3.9" style="fill: #b0d361;"/>
  <polygon id="godcrofts_saegio" points="54.9 40.1 52 55.3 53.2 58 66.9 64.6 74.9 59.7 69.9 40.1 66.9 38.8 54.9 40.1" style="fill: #fff349;"/>
</svg>