<?xml version="1.0" encoding="UTF-8"?>
<svg id="HowlCounty" xmlns="http://www.w3.org/2000/svg" viewBox="0 0 119.1 104.9">
  <polygon points="31.5 3.9 29.2 8.1 44.4 53.2 63.2 53.2 57.9 3.9 31.5 3.9" style="fill: #9b94c8; opacity: .5;"/>
  <polygon points="57.9 3.9 87.5 3.9 90.7 9.5 79.1 51.8 63.2 53.2 57.9 3.9" style="fill: #d41d52; opacity: .5;"/>
  <polygon points="79.1 51.8 104.8 70.9 115.5 52.4 90.7 9.5 79.1 51.8" style="fill: #73bf44; opacity: .5;"/>
  <polygon points="63.2 53.2 79.1 51.8 104.8 70.9 95.2 87.5 63.8 66.9 63.2 53.2" style="fill: #857371; opacity: .5;"/>
  <polygon points="63.2 53.2 44.4 53.2 31.5 68.6 55.7 75.1 63.8 66.9 63.2 53.2" style="fill: #3dbeb7; opacity: .5;"/>
  <polygon points="63.8 66.9 95.2 87.5 87.5 100.9 59.5 100.9 55.7 75.1 63.8 66.9" style="fill: #ffde92; opacity: .5;"/>
  <polygon points="31.5 68.6 55.7 75.1 59.5 100.9 31.5 100.9 16.6 75.1 31.5 68.6" style="fill: #935267; opacity: .5;"/>
  <polygon points="44.4 53.2 31.5 68.6 16.6 75.1 3.6 52.4 29.2 8.1 44.4 53.2" style="fill: #b6dec5; opacity: .5;"/>
</svg>