<?xml version="1.0" encoding="UTF-8"?>
<svg id="MarbanHollow" xmlns="http://www.w3.org/2000/svg" viewBox="0 0 119.1 104.9">
  <polygon id="marbanhollow_mox" points="87.4 3.9 52.5 3.9 57.7 27.4 81.7 36.6 103.6 32 87.4 3.9" style="fill: #721414ff;"/>
  <polygon id="marbanhollow_osterwall" points="81.7 36.6 74.3 56.6 76.7 67.5 101.4 76.8 115.4 52.4 103.6 32 81.7 36.6" style="fill: #ffff00ff;"/>
  <polygon id="marbanhollow_checkpointbua" points="57.7 27.4 53.5 39.4 74.3 56.6 81.7 36.6 57.7 27.4" style="fill: #51ff00ff;"/>
  <polygon id="marbanhollow_maidensveil" points="53.5 39.4 40.9 53 63.4 71.9 76.7 67.5 74.3 56.6 53.5 39.4" style="fill: #57ffc4ff;"/>
  <polygon id="marbanhollow_sanctum" points="57.7 27.4 52.5 3.9 31.4 3.9 3.7 52.1 8.9 61.9 40.9 53 53.5 39.4 57.7 27.4" style="fill: #ff00b7ff;"/>
  <polygon id="marbanhollow_spitrocks" points="8.9 61.9 31.4 100.9 47.3 100.9 63.4 71.9 40.9 53 8.9 61.9" style="fill: #ffc400ff;"/>
  <polygon id="marbanhollow_lockheed" points="63.4 71.9 76.7 67.5 101.4 76.8 87.4 100.9 47.3 100.9 63.4 71.9" style="fill: #e100ffff;"/>
</svg>