<?xml version="1.0" encoding="UTF-8"?>
<svg id="ReaversPass" xmlns="http://www.w3.org/2000/svg" viewBox="0 0 119.1 104.9">
  <polygon id="reaverspass_fortrictus" points="47.3 3.9 31.5 3.9 14.9 32.7 57.4 41.5 47.3 3.9" style="fill: #1e5cbfff;"/>
  <polygon id="reaverspass_thebilge" points="47.3 3.9 87.5 3.9 97.6 21.4 59.5 43.3 57.4 41.5 47.3 3.9" style="fill: #6abd86;"/>
  <polygon id="reaverspass_scuttletown" points="59.5 43.3 59.1 52.5 36.9 67.6 14.8 71.9 3.6 52.4 14.9 32.7 57.4 41.5 59.5 43.3" style="fill: #d5eaf9;"/>
  <polygon id="reaverspass_thimblebase" points="36.9 67.6 60.5 84.8 63.4 100.9 31.5 100.9 14.8 71.9 36.9 67.6" style="fill: #fded6c;"/>
  <polygon id="reaverspass_keelhaul" points="36.9 67.6 59.1 52.5 66.6 62.9 60.5 84.8 36.9 67.6" style="fill: #bf1e5a;"/>
  <polygon id="reaverspass_claycoffer" points="66.6 62.9 104.5 71.5 87.5 100.9 63.4 100.9 60.5 84.8 66.6 62.9" style="fill: #72cddb;"/>
  <polygon id="reaverspass_breakwater" points="59.5 43.3 59.1 52.5 66.6 62.9 104.5 71.5 115.5 52.4 97.6 21.4 59.5 43.3" style="fill: #95872a;"/>
</svg>