<?xml version="1.0" encoding="UTF-8"?>
<svg id="StemaLanding" xmlns="http://www.w3.org/2000/svg" viewBox="0 0 119.1 104.9">
  <polygon id="stemalanding_aciesoverlook" points="87.5 3.9 49.7 3.9 54.9 36.5 96.6 19.7 87.5 3.9" style="fill: #aa00ffff;"/>
  <polygon id="stemalanding_thespearhead" points="54.9 36.5 53.6 40.3 67.3 51.7 74.3 50.9 99.4 24.6 96.6 19.7 54.9 36.5" style="fill: #ffbf00ff;"/>
  <polygon id="stemalanding_basesagitta" points="74.3 50.9 84 71.5 99 81 115.5 52.4 99.4 24.6 74.3 50.9" style="fill: #119b48;"/>
  <polygon id="stemalanding_thewane" points="84 71.5 60.8 73 60.1 100.9 87.5 100.9 99 81 84 71.5" style="fill: #ffee00ff;"/>
  <polygon id="stemalanding_baseferveret" points="84 71.5 74.3 50.9 67.3 51.7 57.5 67.8 60.8 73 84 71.5" style="fill: #935267;"/>
  <polygon id="stemalanding_ustio" points="67.3 51.7 53.6 40.3 43.7 44.2 43.7 64.8 57.5 67.8 67.3 51.7" style="fill: #aeff7fff;"/>
  <polygon id="stemalanding_theflair" points="54.9 36.5 53.6 40.3 43.7 44.2 15.9 31.1 31.5 3.9 49.7 3.9 54.9 36.5" style="fill: #ff005dff;"/>
  <polygon id="stemalanding_vergewing" points="43.7 44.2 15.9 31.1 3.6 52.4 19.7 80.5 43.7 64.8 43.7 44.2" style="fill: #342f90;"/>
  <polygon id="stemalanding_alchimioestate" points="43.7 64.8 57.5 67.8 60.8 73 60.1 100.9 31.5 100.9 19.7 80.5 43.7 64.8" style="fill: #dbcbe3;"/>
</svg>