<?xml version="1.0" encoding="UTF-8"?>
<svg id="Stonecradle" xmlns="http://www.w3.org/2000/svg" viewBox="0 0 119.1 104.9">
  <polygon id="stonecradle_thedais" points="87.5 3.9 31.5 3.9 24.7 15.7 45 32.5 60.2 35.4 88.7 6 87.5 3.9" style="fill: #2a338e;"/>
  <polygon id="stonecradle_thereach" points="60.2 35.4 69.3 41.2 103.6 31.8 88.7 6 60.2 35.4" style="fill: #bf1e5a;"/>
  <polygon id="stonecradle_trammelpool" points="69.3 41.2 72.6 57.2 109 63.7 115.5 52.4 103.6 31.8 69.3 41.2" style="fill: #71c492;"/>
  <polygon id="stonecradle_fadinglights" points="72.6 57.2 71.3 59.2 72.5 86.8 80.9 100.9 87.5 100.9 109 63.7 72.6 57.2" style="fill: #ffd864;"/>
  <polygon id="stonecradle_thecord" points="71.3 59.2 49.8 63.7 52.5 73.2 72.5 86.8 71.3 59.2" style="fill: #72bf44;"/>
  <polygon id="stonecradle_thelongfast" points="52.5 73.2 31.1 100.2 31.5 100.9 80.9 100.9 72.5 86.8 52.5 73.2" style="fill: #721446;"/>
  <polygon id="stonecradle_theheirsknife" points="52.5 73.2 49.8 63.7 48.8 63.4 15.2 72.7 31.1 100.2 52.5 73.2" style="fill: #7dbfe9;"/>
  <polygon id="stonecradle_bucklersound" points="48.8 63.4 45 32.5 60.2 35.4 69.3 41.2 72.6 57.2 71.3 59.2 49.8 63.7 48.8 63.4" style="fill: #f6861f;"/>
  <polygon id="stonecradle_worldsend" points="45 32.5 24.7 15.7 3.6 52.4 15.2 72.7 48.8 63.4 45 32.5" style="fill: #eaf7fe;"/>
</svg>