<?xml version="1.0" encoding="UTF-8"?>
<svg id="Terminus" xmlns="http://www.w3.org/2000/svg" viewBox="0 0 119.1 104.9">
  <polygon points="31.5 3.9 73.3 3.9 61.2 38.2 21 22.3 31.5 3.9" style="fill: #d5eaf9; opacity: .5;"/>
  <polygon points="21 22.3 3.6 52.4 6 56.7 48.5 56.1 62.3 48.7 61.2 38.2 21 22.3" style="fill: #73bf44; opacity: .5;"/>
  <polygon points="61.2 38.2 73.3 3.9 87.5 3.9 106.9 37.5 65.9 51 62.3 48.7 61.2 38.2" style="fill: #bf1e5a; opacity: .5;"/>
  <polygon points="48.5 56.1 46.7 100.9 31.5 100.9 6 56.7 48.5 56.1" style="fill: #fded6c; opacity: .5;"/>
  <polygon points="48.5 56.1 62.3 48.7 65.9 51 90.3 96.2 87.5 100.9 46.7 100.9 48.5 56.1" style="fill: #342f90; opacity: .5;"/>
  <polygon points="65.9 51 106.9 37.5 115.5 52.4 90.3 96.2 65.9 51" style="fill: #72cddb; opacity: .5;"/>
</svg>