<?xml version="1.0" encoding="UTF-8"?>
<svg id="DrownedVale" xmlns="http://www.w3.org/2000/svg" viewBox="0 0 119.1 104.9">
  <polygon points="3.6 52.4 14.9 32.8 43.3 45.5 43.6 61.1 19.1 79.4 3.6 52.4" style="fill: #95872a; opacity: .5;"/>
  <polygon points="19.1 79.4 29.7 97.7 60.1 66.4 55.9 61.8 43.6 61.1 19.1 79.4" style="fill: #bf1e5a; opacity: .5;"/>
  <polygon points="60.1 66.4 64.3 67.3 63.9 100.9 31.5 100.9 29.7 97.7 60.1 66.4" style="fill: #119b48; opacity: .5;"/>
  <polygon points="64.3 67.3 73.3 64.4 98.5 82.1 87.6 100.9 63.9 100.9 64.3 67.3" style="fill: #3a52a4; opacity: .5;"/>
  <polygon points="73.3 64.4 74.9 48.8 104.3 33 115.5 52.4 98.5 82.1 73.3 64.4" style="fill: #73bf44; opacity: .5;"/>
  <polygon points="104.3 33 98.5 23 62.9 32.5 60.1 40.6 74.9 48.8 104.3 33" style="fill: #bf1e5a; opacity: .5;"/>
  <polygon points="62.9 32.5 57.5 3.9 87.5 3.9 98.5 23 62.9 32.5" style="fill: #71c492; opacity: .5;"/>
  <polygon points="57.5 3.9 62.9 32.5 60.1 40.6 58.5 40.9 28.1 9.9 31.5 3.9 57.5 3.9" style="fill: #95872a; opacity: .5;"/>
  <polygon points="28.1 9.9 14.9 32.8 43.3 45.5 58.5 40.9 28.1 9.9" style="fill: #3a52a4; opacity: .5;"/>
  <polygon points="43.3 45.5 43.6 61.1 55.9 61.8 57.8 41.1 43.3 45.5" style="fill: #0c713a; opacity: .5;"/>
  <polygon points="57.8 41.1 60.1 40.6 74.9 48.8 73.3 64.4 64.3 67.3 60.1 66.4 55.9 61.8 57.8 41.1" style="fill: #d5eaf9; opacity: .5;"/>
</svg>