<?xml version="1.0" encoding="UTF-8"?>
<svg id="TheFingers" xmlns="http://www.w3.org/2000/svg" viewBox="0 0 119.1 104.9">
  <polygon points="31.5 3.9 62.5 3.9 59.5 24.8 43 38.9 17.5 28.3 31.5 3.9" style="fill: #95872a; opacity: .5;"/>
  <polygon points="43 38.9 46 49.8 21.8 71.2 15.4 72.9 3.6 52.4 17.5 28.3 43 38.9" style="fill: #bf1e5a; opacity: .5;"/>
  <polygon points="21.8 71.2 56.1 72.5 60.1 68.9 54.8 53.4 46 49.8 21.8 71.2" style="fill: #d5eaf9; opacity: .5;"/>
  <polygon points="31.5 100.9 54.7 100.9 56.1 72.5 21.8 71.2 15.4 72.9 31.5 100.9" style="fill: #6abd86; opacity: .5;"/>
  <polygon points="46 49.8 43 38.9 59.5 24.8 69.1 42.1 54.8 53.4 46 49.8" style="fill: #3a52a4; opacity: .5;"/>
  <polygon points="54.8 53.4 69.1 42.1 78.7 45.4 75.9 69.6 60.1 68.9 54.8 53.4" style="fill: #72cddb; opacity: .5;"/>
  <polygon points="60.1 68.9 56.1 72.5 54.7 100.9 87.5 100.9 95.5 87.1 75.9 69.6 60.1 68.9" style="fill: #f9bec5; opacity: .5;"/>
  <polygon points="75.9 69.6 78.7 45.4 105.1 34.4 115.5 52.4 95.5 87.1 75.9 69.6" style="fill: #8c8ba6; opacity: .5;"/>
  <polygon points="62.5 3.9 87.5 3.9 105.1 34.4 78.7 45.4 69.1 42.1 59.5 24.8 62.5 3.9" style="fill: #eceb74; opacity: .5;"/>
</svg>