<?xml version="1.0" encoding="UTF-8"?>
<svg id="Heartlands" xmlns="http://www.w3.org/2000/svg" viewBox="0 0 119.1 104.9">
  <polygon points="87.5 3.9 69.1 3.9 66.7 13.2 72.9 35.4 103.8 32.2 87.5 3.9" style="fill: #119b48; opacity: .5;"/>
  <polygon points="72.9 35.4 70.9 39.1 77.2 51.1 104.7 33.8 103.8 32.2 72.9 35.4" style="fill: #73bf44; opacity: .5;"/>
  <polygon points="77.2 51.1 75.7 64.2 101.1 77.5 115.5 52.4 104.7 33.8 77.2 51.1" style="fill: #72cddb; opacity: .5;"/>
  <polygon points="75.7 64.2 54.4 66.7 48.2 70.5 26.7 92.6 31.5 100.9 87.5 100.9 101.1 77.5 75.7 64.2" style="fill: #bf1e5a; opacity: .5;"/>
  <polygon points="70.9 39.1 60.4 41.7 54.4 66.7 75.7 64.2 77.2 51.1 70.9 39.1" style="fill: #3a52a4; opacity: .5;"/>
  <polygon points="66.7 13.2 55.1 26.9 55.9 37.3 60.4 41.7 70.9 39.1 72.9 35.4 66.7 13.2" style="fill: #71c492; opacity: .5;"/>
  <polygon points="55.9 37.3 43.1 40.6 48.2 70.5 54.4 66.7 60.4 41.7 55.9 37.3" style="fill: #fded6c; opacity: .5;"/>
  <polygon points="43.1 40.6 20.1 23.8 3.6 52.4 26.7 92.6 48.2 70.5 43.1 40.6" style="fill: #7bd2f0; opacity: .5;"/>
  <polygon points="20.1 23.8 55.1 26.9 55.9 37.3 43.1 40.6 20.1 23.8" style="fill: #0b3554; opacity: .5;"/>
  <polygon points="20.1 23.8 31.5 3.9 69.1 3.9 66.7 13.2 55.1 26.9 20.1 23.8" style="fill: #ef4423; opacity: .5;"/>
</svg>