<?xml version="1.0" encoding="UTF-8"?>
<svg id="TheOarbreakerIsles" xmlns="http://www.w3.org/2000/svg" viewBox="0 0 119.1 104.9">
  <polygon id="oarbreakerisles_theconclave" points="87.5 3.9 60.9 3.9 55.5 39.5 68 43.6 96.7 19.9 87.5 3.9" style="fill: #ff00bfff;"/>
  <polygon id="oarbreakerisles_fortfrogwood" points="68 43.6 71.8 54.2 109.4 63.1 115.5 52.4 96.7 19.9 68 43.6" style="fill: #ffd5ecff;"/>
  <polygon id="oarbreakerisles_partisanisland" points="71.8 54.2 67.4 64.7 90.8 95.3 109.4 63.1 71.8 54.2" style="fill: #7dbfe9;"/>
  <polygon id="oarbreakerisles_posterus" points="67.4 64.7 56.4 68.2 56.1 69.9 58.3 100.9 87.5 100.9 90.8 95.3 67.4 64.7" style="fill: #1dc728ff;"/>
  <polygon id="oarbreakerisles_integrum" points="56.1 69.9 18.9 79.1 31.5 100.9 58.3 100.9 56.1 69.9" style="fill: #9c4646ff;"/>
  <polygon id="oarbreakerisles_thedirk" points="56.4 68.2 45.7 52.9 13.8 70.2 18.9 79.1 56.1 69.9 56.4 68.2" style="fill: #221c0f;"/>
  <polygon id="oarbreakerisles_gold" points="13.8 70.2 3.6 52.4 20.3 23.5 50.3 41.2 45.7 52.9 13.8 70.2" style="fill: #f6861f;"/>
  <polygon id="oarbreakerisles_grislyrefuge" points="20.3 23.5 31.5 3.9 60.9 3.9 55.5 39.5 50.3 41.2 20.3 23.5" style="fill: #b9b9b9ff;"/>
  <polygon id="oarbreakerisles_silver" points="50.3 41.2 55.5 39.5 68 43.6 71.8 54.2 67.4 64.7 56.4 68.2 45.7 52.9 50.3 41.2" style="fill: #3d624bff;"/>
</svg>