<?xml version="1.0" encoding="UTF-8"?>
<svg id="WeatheredExpanse" xmlns="http://www.w3.org/2000/svg" viewBox="0 0 119.1 104.9">
  <polygon id="weatheredexpanse_theweatheringhills" points="31.5 3.9 87.5 3.9 95.4 17.6 67.5 36.5 24.4 16.3 31.5 3.9" style="fill: #62ff00ff;"/>
  <polygon id="weatheredexpanse_shatteredadvance" points="67.5 36.5 64.5 41.3 49.8 47.9 39.8 42.2 23 18.8 24.4 16.3 67.5 36.5" style="fill: #ff005dff;"/>
  <polygon id="weatheredexpanse_frostmarch" points="23 18.8 3.6 52.4 18 77.4 28.3 68.1 39.8 42.2 23 18.8" style="fill: #c6f0ffff;"/>
  <polygon id="weatheredexpanse_crowsnest" points="39.8 42.2 49.8 47.9 49.3 58.9 28.3 68.1 39.8 42.2" style="fill: #00fff2ff;"/>
  <polygon id="weatheredexpanse_huntsfort" points="49.8 47.9 64.5 41.3 68.1 60.2 63.5 65 56.9 66.1 49.3 58.9 49.8 47.9" style="fill: #ffde92;"/>
  <polygon id="weatheredexpanse_wightwalk" points="64.5 41.3 67.5 36.5 95.4 17.6 115.5 52.4 106.9 67.3 68.1 60.2 64.5 41.3" style="fill: #c38276;"/>
  <polygon id="weatheredexpanse_spiritwatch" points="68.1 60.2 106.9 67.3 87.5 100.9 78.4 100.9 63.5 65 68.1 60.2" style="fill: #81896dff;"/>
  <polygon id="weatheredexpanse_foxcatcher" points="63.5 65 56.9 66.1 39.4 100.9 78.4 100.9 63.5 65" style="fill: #ea7ca5ff;"/>
  <polygon id="weatheredexpanse_necropolis" points="56.9 66.1 49.3 58.9 28.3 68.1 18 77.4 31.5 100.9 39.4 100.9 56.9 66.1" style="fill: #585858ff;"/>
</svg>