<?xml version="1.0" encoding="UTF-8"?>
<svg id="Westgate" xmlns="http://www.w3.org/2000/svg" viewBox="0 0 119.1 104.9">
  <polygon id="westgate_ranchersfast" points="87.5 3.9 66 3.9 61.9 21 67.6 34.2 78.7 37.4 99.9 25.5 87.5 3.9" style="fill: #00ff26ff;"/>
  <polygon id="westgate_lordsmouth" points="78.7 37.4 78.2 52 113.8 55.3 115.5 52.4 99.9 25.5 78.7 37.4" style="fill: #ceffb2ff;"/>
  <polygon id="westgate_lostpartition" points="78.2 52 76.4 53.9 76.1 61.7 96.2 86 113.8 55.3 78.2 52" style="fill: #ff0051ff;"/>
  <polygon id="westgate_longstone" points="76.1 61.7 60.5 67.8 74.9 100.9 87.5 100.9 96.2 86 76.1 61.7" style="fill: #a7a7a7ff;"/>
  <polygon id="westgate_zeusdemise" points="60.5 67.8 47.8 61.3 49.4 100.9 74.9 100.9 60.5 67.8" style="fill: #ffd864;"/>
  <polygon id="westgate_wyattwick" points="47.8 61.3 41.7 54.1 17.9 46.2 7.7 45.2 3.6 52.4 31.5 100.9 49.4 100.9 47.8 61.3" style="fill: #0d00ffff;"/>
  <polygon id="westgate_thegallows" points="7.7 45.2 31.5 3.9 66 3.9 61.9 21 17.9 46.2 7.7 45.2" style="fill: #05515b;"/>
  <polygon id="westgate_holdfast" points="17.9 46.2 61.9 21 67.6 34.2 55.5 48.2 41.7 54.1 17.9 46.2" style="fill: #4d086fff;"/>
  <polygon id="westgate_kingstone" points="67.6 34.2 78.7 37.4 78.2 52 76.4 53.9 55.5 48.2 67.6 34.2" style="fill: #fd8300ff;"/>
  <polygon id="westgate_westgatekeep" points="55.5 48.2 76.4 53.9 76.1 61.7 60.5 67.8 47.8 61.3 41.7 54.1 55.5 48.2" style="fill: #bf1e5a;"/>
</svg>